<svg xmlns="http://www.w3.org/2000/svg" version="1.1" xmlns:xlink="http://www.w3.org/1999/xlink" xmlns:svgjs="http://svgjs.dev/svgjs" width="1000" height="315" viewBox="0 0 1000 315"><g transform="matrix(1,0,0,1,-0.6060606060606233,-0.20789703724020114)"><svg viewBox="0 0 396 125" data-background-color="#89939e" preserveAspectRatio="xMidYMid meet" height="315" width="1000" xmlns="http://www.w3.org/2000/svg" xmlns:xlink="http://www.w3.org/1999/xlink"><g id="tight-bounds" transform="matrix(1,0,0,1,0.2400000000000091,1.1314164439051524)"><svg viewBox="0 0 395.52 123.78608473179318" height="123.78608473179318" width="395.52"><g><svg viewBox="0 0 397.4975999999999 124.40501515545213" height="123.78608473179318" width="395.52"><g><rect width="397.4975999999999" height="2.444498903561886" x="0" y="69.7333898222294" fill="#000000" opacity="1" stroke-width="0" stroke="transparent" fill-opacity="1" class="rect-o-0" data-fill-palette-color="primary" rx="1%" id="o-0" data-palette-color="#000000"></rect></g><g transform="matrix(1,0,0,1,0.9887999999999693,78.57710051522031)"><svg viewBox="0 0 395.52 45.82791464023182" height="45.82791464023182" width="395.52"><g><svg viewBox="0 0 395.52 45.82791464023182" height="45.82791464023182" width="395.52"><g><svg viewBox="0 0 395.52 27.106574956492913" height="27.106574956492913" width="395.52"><g transform="matrix(1,0,0,1,0,0)"><svg width="395.52" viewBox="1.75 -40.29999923706055 603.8200073242188 41.349998474121094" height="27.106574956492913" data-palette-color="#000000"><g class="undefined-text-0" data-fill-palette-color="primary" id="text-0"><path d="M22.1-7.85Q22.1-9.3 20.95-10.65 19.8-12 18.1-13.15 16.4-14.3 13.4-16.05L13.4-16.05Q9.7-18.2 7.45-19.78 5.2-21.35 3.6-23.45 2-25.55 2-28.1L2-28.1Q2-30.6 4.42-33.48 6.85-36.35 10.35-38.33 13.85-40.3 16.8-40.3L16.8-40.3Q20.35-40.3 25.08-39.55 29.8-38.8 32-37.95L32-37.95 32-26.25 25.6-26.25Q23.75-30.25 21.43-32.52 19.1-34.8 16.6-34.8L16.6-34.8Q15.1-34.8 14.25-33.85 13.4-32.9 13.4-31.4L13.4-31.4Q13.4-29.8 14.58-28.38 15.75-26.95 17.53-25.78 19.3-24.6 22.35-22.85L22.35-22.85Q25.95-20.8 28.18-19.28 30.4-17.75 31.95-15.7 33.5-13.65 33.5-11.15L33.5-11.15Q33.5-8.65 30.93-5.78 28.35-2.9 24.65-0.93 20.95 1.05 17.9 1.05L17.9 1.05Q14.2 1.05 9.1 0.3 4-0.45 1.75-1.3L1.75-1.3 1.75-13 8.15-13Q10.15-8.95 12.8-6.7 15.45-4.45 18.15-4.45L18.15-4.45Q19.95-4.45 21.03-5.45 22.1-6.45 22.1-7.85L22.1-7.85ZM73.7 0.9L69.55 0 37 0 37-3.55 41.7-7.25 41.7-33.75 36-35.3 38-39.3 69.05-39.3 73.2-40.2 73.2-26.7 69.7-25.2 63.4-34.55 52.45-34.55 52.45-22.45 57.3-22.45 60.95-27.6 64.5-27.6 64.5-13.4 60.5-11.4 57.15-17.7 52.45-17.7 52.45-4.75 62.95-4.75 70.2-15.1 73.7-13.6 73.7 0.9ZM114.9 0.9L110.75 0 78.2 0 78.2-3.55 82.9-7.25 82.9-33.75 77.2-35.3 79.2-39.3 110.25-39.3 114.4-40.2 114.4-26.7 110.9-25.2 104.6-34.55 93.65-34.55 93.65-22.45 98.5-22.45 102.15-27.6 105.7-27.6 105.7-13.4 101.7-11.4 98.35-17.7 93.65-17.7 93.65-4.75 104.15-4.75 111.4-15.1 114.9-13.6 114.9 0.9ZM175.19-3.95L173.19 0.05 153.99 0.05 153.99-3.5 158.69-7.2 158.69-28.9 146.84 0.05 141.59 0.05 129.34-29.2 129.34-6 135.09-3.95 133.09 0.05 119.39 0.05 119.39-3.5 124.09-7.2 124.09-33.15 118.39-35.3 120.39-39.3 136.39-39.3 147.14-13.6 157.69-39.3 174.19-39.3 174.19-35.75 169.44-32.05 169.44-5.35 175.19-3.95ZM223.84-4L221.84 0 201.14 0 201.14-3.55 207.09-6.65 204.54-12.95 189.94-12.95 187.89-7.85 194.89-4 192.89 0 176.19 0 176.19-3.55 182.04-7.9 194.04-37.7 204.74-40.25 218.64-6.35 223.84-4ZM202.59-17.7L197.14-31.1 191.79-17.7 202.59-17.7Z" fill="#000000" data-fill-palette-color="primary"></path><path d="M247.04-4L245.04 0 225.84 0 225.84-3.55 230.54-7.65 230.54-33.75 224.84-35.25 226.84-39.25 246.04-39.25 246.04-35.7 241.29-31.55 241.29-5.5 247.04-4ZM293.24-35.8L288.49-31.65 288.49-0.05 283.24-0.05 259.99-24.8 259.99-6.7 268.24-4 266.24 0 250.04 0 250.04-3.55 254.74-7.65 254.74-32.05 249.04-35.3 251.04-39.3 260.59-39.3 283.24-15.25 283.24-32.65 275.04-35.3 277.04-39.3 293.24-39.3 293.24-35.8ZM318.24-39.8Q324.14-39.8 328.66-37.33 333.19-34.85 335.69-30.45 338.19-26.05 338.19-20.5L338.19-20.5Q338.19-14.8 334.46-9.98 330.74-5.15 325.21-2.33 319.69 0.5 314.69 0.5L314.69 0.5Q312.49 0.5 310.24 0.25L310.24 0.25Q306.64 0 304.59 0L304.59 0 295.74 0 295.74-3.55 300.44-7.25 300.44-33.6 294.74-35.3 296.74-39.3 304.54-39.3Q309.09-39.3 313.49-39.6L313.49-39.6Q316.69-39.8 318.24-39.8L318.24-39.8ZM316.09-4.7Q318.94-4.7 321.31-6.45 323.69-8.2 325.06-11.28 326.44-14.35 326.44-18.15L326.44-18.15Q326.44-22.7 325.11-26.43 323.79-30.15 321.06-32.38 318.34-34.6 314.34-34.6L314.34-34.6Q312.69-34.6 311.24-33.75L311.24-33.75 311.24-5.5Q313.39-4.7 316.09-4.7L316.09-4.7ZM385.08-35.75L380.33-32.05 380.33-15.5Q380.33-10.25 377.66-6.5 374.98-2.75 371.03-0.88 367.08 1 363.33 1L363.33 1Q358.28 1 354.31-0.98 350.33-2.95 348.11-6.43 345.88-9.9 345.88-14.25L345.88-14.25 345.88-33.95 340.18-35.3 342.18-39.3 361.38-39.3 361.38-35.75 356.63-32.05 356.63-15.65Q356.63-10.95 359.13-8.33 361.63-5.7 366.73-5.7L366.73-5.7Q368.68-5.7 370.61-6.83 372.53-7.95 373.81-10.1 375.08-12.25 375.08-15.15L375.08-15.15 375.08-33.2 368.88-35.3 370.88-39.3 385.08-39.3 385.08-35.75ZM407.68-7.85Q407.68-9.3 406.53-10.65 405.38-12 403.68-13.15 401.98-14.3 398.98-16.05L398.98-16.05Q395.28-18.2 393.03-19.78 390.78-21.35 389.18-23.45 387.58-25.55 387.58-28.1L387.58-28.1Q387.58-30.6 390.01-33.48 392.43-36.35 395.93-38.33 399.43-40.3 402.38-40.3L402.38-40.3Q405.93-40.3 410.65-39.55 415.38-38.8 417.58-37.95L417.58-37.95 417.58-26.25 411.18-26.25Q409.33-30.25 407.01-32.52 404.68-34.8 402.18-34.8L402.18-34.8Q400.68-34.8 399.83-33.85 398.98-32.9 398.98-31.4L398.98-31.4Q398.98-29.8 400.15-28.38 401.33-26.95 403.11-25.78 404.88-24.6 407.93-22.85L407.93-22.85Q411.53-20.8 413.76-19.28 415.98-17.75 417.53-15.7 419.08-13.65 419.08-11.15L419.08-11.15Q419.08-8.65 416.51-5.78 413.93-2.9 410.23-0.93 406.53 1.05 403.48 1.05L403.48 1.05Q399.78 1.05 394.68 0.3 389.58-0.45 387.33-1.3L387.33-1.3 387.33-13 393.73-13Q395.73-8.95 398.38-6.7 401.03-4.45 403.73-4.45L403.73-4.45Q405.53-4.45 406.61-5.45 407.68-6.45 407.68-7.85L407.68-7.85ZM461.68-40.2L461.68-25.7 458.18-24.2 450.93-34.55 447.18-34.55 447.18-5.35 452.93-4 450.93 0 431.73 0 431.73-3.55 436.43-7.25 436.43-34.55 432.83-34.55 425.58-24.2 422.08-25.7 422.08-40.2 426.23-39.3 457.53-39.3 461.68-40.2ZM507.18-4L505.18 0 493.38 0 484.58-17 482.47-18.2 483.97-21.2 486.03-21.2Q488.28-21.2 489.58-22.83 490.88-24.45 490.88-27.4L490.88-27.4Q490.88-30.65 489.2-32.63 487.53-34.6 484.28-34.6L484.28-34.6Q482.33-34.6 480.63-33.45L480.63-33.45 480.63-5.55 486.38-4.05 484.38-0.05 465.18-0.05 465.18-3.6 469.87-7.7 469.87-33.8 464.18-35.3 466.18-39.3 475.98-39.3Q480.18-39.3 484.28-39.6L484.28-39.6Q487.28-39.8 488.68-39.8L488.68-39.8Q492.78-39.8 495.95-38.43 499.13-37.05 500.88-34.65 502.63-32.25 502.63-29.25L502.63-29.25Q502.63-25.85 499.65-22.95 496.68-20.05 492.22-18.4L492.22-18.4 496.68-17.2 502.43-6.15 507.18-4ZM529.87-4L527.87 0 508.67 0 508.67-3.55 513.37-7.65 513.37-33.75 507.67-35.25 509.67-39.25 528.87-39.25 528.87-35.7 524.12-31.55 524.12-5.5 529.87-4ZM569.57 0.9L565.42 0 532.87 0 532.87-3.55 537.57-7.25 537.57-33.75 531.87-35.3 533.87-39.3 564.92-39.3 569.07-40.2 569.07-26.7 565.57-25.2 559.27-34.55 548.32-34.55 548.32-22.45 553.17-22.45 556.82-27.6 560.37-27.6 560.37-13.4 556.37-11.4 553.02-17.7 548.32-17.7 548.32-4.75 558.82-4.75 566.07-15.1 569.57-13.6 569.57 0.9ZM594.17-7.85Q594.17-9.3 593.02-10.65 591.87-12 590.17-13.15 588.47-14.3 585.47-16.05L585.47-16.05Q581.77-18.2 579.52-19.78 577.27-21.35 575.67-23.45 574.07-25.55 574.07-28.1L574.07-28.1Q574.07-30.6 576.49-33.48 578.92-36.35 582.42-38.33 585.92-40.3 588.87-40.3L588.87-40.3Q592.42-40.3 597.14-39.55 601.87-38.8 604.07-37.95L604.07-37.95 604.07-26.25 597.67-26.25Q595.82-30.25 593.49-32.52 591.17-34.8 588.67-34.8L588.67-34.8Q587.17-34.8 586.32-33.85 585.47-32.9 585.47-31.4L585.47-31.4Q585.47-29.8 586.64-28.38 587.82-26.95 589.59-25.78 591.37-24.6 594.42-22.85L594.42-22.85Q598.02-20.8 600.24-19.28 602.47-17.75 604.02-15.7 605.57-13.65 605.57-11.15L605.57-11.15Q605.57-8.65 602.99-5.78 600.42-2.9 596.72-0.93 593.02 1.05 589.97 1.05L589.97 1.05Q586.27 1.05 581.17 0.3 576.07-0.45 573.82-1.3L573.82-1.3 573.82-13 580.22-13Q582.22-8.95 584.87-6.7 587.52-4.45 590.22-4.45L590.22-4.45Q592.02-4.45 593.09-5.45 594.17-6.45 594.17-7.85L594.17-7.85Z" fill="#c8c8c8" data-fill-palette-color="secondary"></path></g></svg></g></svg></g><g transform="matrix(1,0,0,1,75.54432,33.50578674592194)"><svg viewBox="0 0 244.43135999999998 12.322127894309883" height="12.322127894309883" width="244.43135999999998"><g transform="matrix(1,0,0,1,0,0)"><svg width="244.43135999999998" viewBox="3.0799999237060547 -41.9900016784668 1053.239990234375 53.10000228881836" height="12.322127894309883" data-palette-color="#c8c8c8"><path d="M3.08 0L8.84-37.35 15.21-37.35 23.71-9.77 25.15-3.81 26.54-9.79 34.74-37.35 40.82-37.35 46.85 0 42.7 0 38.16-28.22 37.48-34.81 35.99-28.17 27.56-0.02 22.75-0.02 13.96-28.32 12.23-34.81 11.4-28.27 7.28 0 3.08 0ZM77.76-19.41L77.76-10.3Q77.76-5.44 78.22-0.2L78.22-0.2 74.61 0.1 74-3.3Q70.9-0.81 65.79 0.17L65.79 0.17Q64.13 0.49 62.84 0.49 61.55 0.49 60.56 0.37 59.57 0.24 58.65-0.11 57.74-0.46 56.96-1.1 56.17-1.73 55.59-2.78L55.59-2.78Q54.34-5 54.34-8.12 54.34-11.23 54.79-12.95 55.25-14.67 56.3-15.82L56.3-15.82Q58.37-18.09 63.28-18.09 68.19-18.09 73.75-16.24L73.75-16.24 73.75-19.41Q73.75-24.71 69.38-25.68L69.38-25.68Q67.97-26 66.14-26L66.14-26Q61.96-26 57.47-24.34L57.47-24.34 56.56-27.86Q57.81-28.69 62.91-29.35L62.91-29.35Q64.52-29.54 66.78-29.54 69.04-29.54 71.21-29 73.39-28.47 74.83-27.25L74.83-27.25Q77.76-24.83 77.76-19.41L77.76-19.41ZM73.65-13.18L73.65-13.18Q67.94-14.62 63.11-14.62L63.11-14.62Q60.13-14.62 59.15-12.92L59.15-12.92Q58.49-11.72 58.49-9.38 58.49-7.03 58.75-5.98 59.01-4.93 59.59-4.25L59.59-4.25Q60.74-2.95 63.38-2.95L63.38-2.95Q67.5-2.95 71.56-5.08L71.56-5.08Q72.8-5.71 73.8-6.49L73.8-6.49Q73.65-9.13 73.65-13.18ZM102.56-25.73L102.56-25.73Q97.8-25.73 92.87-22.92L92.87-22.92 92.87 0 88.81 0 88.81-29.05 92.38-29.05 92.77-26.05Q95.43-28.22 99.38-29.15L99.38-29.15Q101-29.54 103.17-29.54 105.34-29.54 107-29.04 108.66-28.54 109.64-27.44L109.64-27.44Q111.42-25.46 111.42-20.24L111.42-20.24 111.42 0 107.32 0 107.32-19.48Q107.32-23 106.64-24.01 105.95-25.02 105.01-25.38 104.07-25.73 102.56-25.73ZM144.08-29.05L144.08-12.79Q144.08-4.74 144.55-0.2L144.55-0.2 140.91 0.1 140.32-3.34Q137.47-0.98 133.66 0.07L133.66 0.07Q132.15 0.49 130.06 0.49 127.97 0.49 126.32-0.01 124.68-0.51 123.7-1.61L123.7-1.61Q121.92-3.59 121.92-8.81L121.92-8.81 121.92-29.05 126.02-29.05 126.02-9.47Q126.02-5.96 126.7-4.94 127.39-3.93 128.33-3.58 129.26-3.22 130.56-3.22 131.85-3.22 133.06-3.43 134.27-3.64 135.49-4.03L135.49-4.03Q138.05-4.86 140.13-6.3L140.13-6.3 140.13-6.32Q140.03-8.18 140.03-13.55L140.03-13.55 140.03-29.05 144.08-29.05ZM164.22-38.48Q162.34-38.48 161.37-37.66 160.39-36.84 160.39-34.44 160.39-32.03 161.29-29.05L161.29-29.05 168.2-29.05 168.2-25.66 161.24-25.66 161.24 0 157.31 0 157.31-25.66 152.46-25.66 152.46-28.66 157.27-29.05Q156.95-29.71 156.66-31.91 156.36-34.11 156.36-35.06L156.36-35.06Q156.36-41.99 164.47-41.99L164.47-41.99Q167.4-41.99 170.01-41.36L170.01-41.36 169.28-37.72Q166.1-38.48 164.22-38.48ZM198.5-19.41L198.5-10.3Q198.5-5.44 198.96-0.2L198.96-0.2 195.35 0.1 194.74-3.3Q191.64-0.81 186.54 0.17L186.54 0.17Q184.88 0.49 183.58 0.49 182.29 0.49 181.3 0.37 180.31 0.24 179.39-0.11 178.48-0.46 177.7-1.1 176.92-1.73 176.33-2.78L176.33-2.78Q175.09-5 175.09-8.12 175.09-11.23 175.54-12.95 175.99-14.67 177.04-15.82L177.04-15.82Q179.11-18.09 184.02-18.09 188.93-18.09 194.49-16.24L194.49-16.24 194.49-19.41Q194.49-24.71 190.12-25.68L190.12-25.68Q188.71-26 186.88-26L186.88-26Q182.7-26 178.21-24.34L178.21-24.34 177.31-27.86Q178.55-28.69 183.65-29.35L183.65-29.35Q185.27-29.54 187.52-29.54 189.78-29.54 191.96-29 194.13-28.47 195.57-27.25L195.57-27.25Q198.5-24.83 198.5-19.41L198.5-19.41ZM194.4-13.18L194.4-13.18Q188.68-14.62 183.85-14.62L183.85-14.62Q180.87-14.62 179.89-12.92L179.89-12.92Q179.24-11.72 179.24-9.38 179.24-7.03 179.49-5.98 179.75-4.93 180.33-4.25L180.33-4.25Q181.48-2.95 184.12-2.95L184.12-2.95Q188.24-2.95 192.3-5.08L192.3-5.08Q193.54-5.71 194.54-6.49L194.54-6.49Q194.4-9.13 194.4-13.18ZM228.53-4.59L229.75-1.29Q226.35 0.49 220.44 0.49L220.44 0.49Q216.95 0.49 215.32-0.05L215.32-0.05Q211.14-1.46 209.85-4.86L209.85-4.86Q208.94-7.23 208.8-9.96 208.65-12.7 208.65-14.58 208.65-16.46 208.75-18.25 208.85-20.04 209.23-21.7 209.6-23.36 210.39-24.79 211.17-26.22 212.51-27.29L212.51-27.29Q215.41-29.54 220.86-29.54L220.86-29.54Q224.86-29.54 228.23-28.37L228.23-28.37Q229.14-28.08 229.6-27.81L229.6-27.81 228.38-24.19Q223.69-26 220.7-26 217.71-26 216.31-25.32 214.9-24.63 214.12-23.24L214.12-23.24Q212.8-20.85 212.8-14.45L212.8-14.45Q212.8-11.89 212.97-9.78 213.14-7.67 213.83-6.15L213.83-6.15Q215.27-3.03 219.77-3.03 224.28-3.03 228.53-4.59L228.53-4.59ZM251.67-4.57L253.06-1.39Q249.08 0.49 245.71 0.49L245.71 0.49Q239.61 0.49 238.78-4.74L238.78-4.74Q238.58-5.98 238.58-8.35L238.58-8.35 238.58-25.66 235.07-25.66 235.07-28.66 238.58-29.05 239.22-35.69 242.61-35.69 242.61-29.05 251.08-29.05 251.08-25.66 242.61-25.66 242.61-8.42Q242.61-5.42 243.05-4.59L243.05-4.59Q243.85-3.08 246.27-3.08 248.69-3.08 251.67-4.57L251.67-4.57ZM281.57-29.05L281.57-12.79Q281.57-4.74 282.04-0.2L282.04-0.2 278.4 0.1 277.81-3.34Q274.96-0.98 271.15 0.07L271.15 0.07Q269.63 0.49 267.55 0.49 265.46 0.49 263.81-0.01 262.16-0.51 261.19-1.61L261.19-1.61Q259.4-3.59 259.4-8.81L259.4-8.81 259.4-29.05 263.51-29.05 263.51-9.47Q263.51-5.96 264.19-4.94 264.87-3.93 265.81-3.58 266.75-3.22 268.05-3.22 269.34-3.22 270.55-3.43 271.76-3.64 272.98-4.03L272.98-4.03Q275.54-4.86 277.62-6.3L277.62-6.3 277.62-6.32Q277.52-8.18 277.52-13.55L277.52-13.55 277.52-29.05 281.57-29.05ZM303.32-25.51L303.32-25.51Q300.2-25.51 296.95-22.39L296.95-22.39 296.95 0 292.9 0 292.9-29.05 296.46-29.05 296.85-25.2Q298-26.98 299.33-27.98 300.66-28.98 301.52-29.2L301.52-29.2Q302.74-29.54 303.83-29.54 304.93-29.54 306.59-29.1L306.59-29.1 306.23-25.22Q304.98-25.51 303.32-25.51ZM335.3-5.03L336.5-1.54Q331.44 0.49 325.34 0.49L325.34 0.49Q321.8 0.49 319.34-0.24L319.34-0.24Q315.4-1.37 314.11-4.88L314.11-4.88Q312.91-8.18 312.91-14.65L312.91-14.65 312.91-15.89Q312.91-23.63 316.14-26.76L316.14-26.76Q319.04-29.54 325.83-29.54L325.83-29.54Q332.45-29.54 334.86-26.27L334.86-26.27Q336.03-24.68 336.41-22.42 336.79-20.17 336.79-18.12L336.79-18.12Q336.79-14.92 336.64-13.16L336.64-13.16Q333.2-13.01 330.47-13.01L330.47-13.01Q330.47-13.01 326.54-13.01L326.54-13.01Q320.39-13.01 317.06-13.55L317.06-13.55Q317.06-7.93 318.48-5.71L318.48-5.71Q320.21-3 325.39-3 330.57-3 335.3-5.03L335.3-5.03ZM317.06-16.41L332.67-16.41 332.67-18.75Q332.67-22.58 331.18-24.22L331.18-24.22Q329.52-26.05 325.44-26.05L325.44-26.05Q320.56-26.05 318.77-23.93L318.77-23.93Q317.06-21.9 317.06-16.41L317.06-16.41ZM357.47-25.51L357.47-25.51Q354.34-25.51 351.1-22.39L351.1-22.39 351.1 0 347.04 0 347.04-29.05 350.61-29.05 351-25.2Q352.15-26.98 353.48-27.98 354.81-28.98 355.66-29.2L355.66-29.2Q356.88-29.54 357.98-29.54 359.08-29.54 360.74-29.1L360.74-29.1 360.37-25.22Q359.13-25.51 357.47-25.51ZM400.75-3.1L400.75-3.1Q396.21 0.46 390.18 0.46L390.18 0.46Q385.54 0.46 383.22-1.64L383.22-1.64Q380.56-4.05 380.56-9.38L380.56-9.38Q380.56-14.18 382-16.48L382-16.48Q383.22-18.43 386.49-19.85L386.49-19.85Q384.34-20.9 383.54-22L383.54-22Q381.88-24.22 381.88-28.05L381.88-28.05Q381.88-37.79 393.06-37.79L393.06-37.79Q398.41-37.79 402.82-35.99L402.82-35.99 401.53-32.42Q399.19-33.64 395.57-34.25L395.57-34.25Q394.25-34.47 392.64-34.47 391.03-34.47 389.7-34.22 388.37-33.96 387.57-33.2L387.57-33.2Q386-31.81 386-27.49L386-27.49Q386-22.53 389.91-21.39L389.91-21.39Q391.08-21.04 392.37-21.04L392.37-21.04 400.24-21.04 401.29-27.49 404.12-27.49 404.12-21.04 411.3-21.04Q411.39-20.36 411.39-19.48L411.39-19.48Q411.39-18.58 411.3-17.9L411.3-17.9 404.12-17.9 404.12-7.47Q404.12-4.59 404.39-3.93 404.66-3.27 405.09-3.05 405.53-2.83 406.32-2.83L406.32-2.83Q408.66-2.83 411.32-4.13L411.32-4.13 412.47-1.27Q409.49 0.46 405.49 0.46L405.49 0.46Q403.41 0.46 402.24-0.5 401.07-1.46 400.75-3.1ZM387.48-17.02Q386.15-16.14 385.48-14.7 384.81-13.26 384.81-10.9 384.81-8.54 385.05-7.03 385.29-5.52 385.95-4.57L385.95-4.57Q387.2-2.76 390.74-2.76L390.74-2.76Q396.21-2.76 400.24-6.18L400.24-6.18 400.24-17.9 392.3-17.9Q388.81-17.9 387.48-17.02ZM434.73 0L434.73-37.35 455.9-37.35 455.9-33.74 438.88-33.74 438.88-20.85 452.6-20.85 452.6-17.26 438.88-17.26 438.88-3.59 456.55-3.59 456.55 0 434.73 0ZM460.29 0L469.91-14.72 460.58-29.05 465.32-29.05 472.54-17.31 479.89-29.05 484.55-29.05 475.08-14.84 485.12 0 480.43 0 472.52-12.08 464.75 0 460.29 0ZM496.61-1.73L496.61-1.73 496.61 11.11 492.56 11.11 492.56-29.05 495.86-29.05 496.32-26.05Q499.18-28.2 503.77-29.2L503.77-29.2Q505.43-29.54 507.38-29.54 509.33-29.54 510.83-29.03 512.34-28.52 513.31-27.6 514.29-26.68 514.83-25.42 515.36-24.15 515.63-22.66L515.63-22.66Q515.97-20.61 515.97-16.11L515.97-16.11 515.97-15.55Q515.97-9.84 515.58-7.64 515.19-5.44 514.56-4.02 513.92-2.59 512.8-1.59L512.8-1.59Q510.48 0.49 505.62 0.49 500.76 0.49 496.61-1.73ZM496.61-22.92L496.61-5.08Q500.76-3.17 505.33-3.17L505.33-3.17Q508.31-3.17 509.67-4.27L509.67-4.27Q511.53-5.79 511.75-11.33L511.75-11.33Q511.82-13.16 511.82-15.53L511.82-15.53 511.82-16.06Q511.82-21.68 510.85-23.58L510.85-23.58Q509.75-25.76 506.31-25.76L506.31-25.76 505.94-25.76Q502.35-25.76 498.49-23.97L498.49-23.97Q497.37-23.46 496.61-22.92L496.61-22.92ZM525.15-14.45L525.15-14.45Q525.15-20 525.71-22.19 526.27-24.39 527.09-25.67 527.91-26.95 529.3-27.81L529.3-27.81Q532.08-29.54 537.53-29.54L537.53-29.54Q545.39-29.54 547.64-25.66L547.64-25.66Q548.98-23.32 549.17-19.04L549.17-19.04Q549.25-17.02 549.25-14.58 549.25-12.13 549.09-10.02 548.93-7.91 548.47-6.23 548-4.54 547.17-3.28 546.34-2.03 544.97-1.17L544.97-1.17Q542.29 0.49 537.14 0.49L537.14 0.49Q529.42 0.49 527.01-3.32L527.01-3.32Q525.52-5.69 525.27-9.96L525.27-9.96Q525.15-12.01 525.15-14.45ZM531.79-4.27Q532.67-3.61 534-3.28 535.33-2.95 537.64-2.95 539.95-2.95 541.52-3.61 543.09-4.27 543.89-5.73 544.68-7.18 544.89-9.5 545.1-11.82 545.1-14.89 545.1-17.97 544.91-20.02 544.73-22.07 544-23.41L544-23.41Q542.53-26.05 537.48-26.05L537.48-26.05Q532.13-26.05 530.52-23.41L530.52-23.41Q529.72-22.07 529.5-20 529.28-17.92 529.28-15.48 529.28-13.04 529.34-11.34 529.4-9.64 529.65-8.29 529.91-6.93 530.41-5.93 530.91-4.93 531.79-4.27ZM569.7-25.51L569.7-25.51Q566.58-25.51 563.33-22.39L563.33-22.39 563.33 0 559.28 0 559.28-29.05 562.84-29.05 563.23-25.2Q564.38-26.98 565.71-27.98 567.04-28.98 567.9-29.2L567.9-29.2Q569.12-29.54 570.22-29.54 571.31-29.54 572.97-29.1L572.97-29.1 572.61-25.22Q571.36-25.51 569.7-25.51ZM593.04-4.57L594.43-1.39Q590.45 0.49 587.08 0.49L587.08 0.49Q580.98 0.49 580.15-4.74L580.15-4.74Q579.95-5.98 579.95-8.35L579.95-8.35 579.95-25.66 576.44-25.66 576.44-28.66 579.95-29.05 580.59-35.69 583.98-35.69 583.98-29.05 592.45-29.05 592.45-25.66 583.98-25.66 583.98-8.42Q583.98-5.42 584.42-4.59L584.42-4.59Q585.23-3.08 587.65-3.08 590.06-3.08 593.04-4.57L593.04-4.57ZM622.53-5.03L623.73-1.54Q618.67 0.49 612.57 0.49L612.57 0.49Q609.03 0.49 606.56-0.24L606.56-0.24Q602.63-1.37 601.34-4.88L601.34-4.88Q600.14-8.18 600.14-14.65L600.14-14.65 600.14-15.89Q600.14-23.63 603.37-26.76L603.37-26.76Q606.27-29.54 613.06-29.54L613.06-29.54Q619.67-29.54 622.09-26.27L622.09-26.27Q623.26-24.68 623.64-22.42 624.02-20.17 624.02-18.12L624.02-18.12Q624.02-14.92 623.87-13.16L623.87-13.16Q620.43-13.01 617.7-13.01L617.7-13.01Q617.7-13.01 613.77-13.01L613.77-13.01Q607.61-13.01 604.29-13.55L604.29-13.55Q604.29-7.93 605.71-5.71L605.71-5.71Q607.44-3 612.62-3 617.79-3 622.53-5.03L622.53-5.03ZM604.29-16.41L619.89-16.41 619.89-18.75Q619.89-22.58 618.4-24.22L618.4-24.22Q616.74-26.05 612.67-26.05L612.67-26.05Q607.78-26.05 606-23.93L606-23.93Q604.29-21.9 604.29-16.41L604.29-16.41ZM644.7-25.51L644.7-25.51Q641.57-25.51 638.32-22.39L638.32-22.39 638.32 0 634.27 0 634.27-29.05 637.84-29.05 638.23-25.2Q639.37-26.98 640.7-27.98 642.03-28.98 642.89-29.2L642.89-29.2Q644.11-29.54 645.21-29.54 646.31-29.54 647.97-29.1L647.97-29.1 647.6-25.22Q646.36-25.51 644.7-25.51ZM653.41-2.39L655.17-5.76Q660.2-2.95 665.27-2.95L665.27-2.95Q669.5-2.95 670.23-5.96L670.23-5.96Q670.47-6.98 670.47-8.46 670.47-9.94 670.13-10.75 669.79-11.57 668.99-11.98 668.18-12.38 666.85-12.57 665.52-12.77 663.47-13.12 661.42-13.48 659.71-13.92 658-14.36 656.8-15.19L656.8-15.19Q654.26-16.97 654.36-21.19L654.36-21.19 654.36-21.8Q654.36-26.25 657.29-28.13L657.29-28.13Q660.12-29.98 666.64-29.39L666.64-29.39Q671.09-28.98 673.72-27.86L673.72-27.86 672.57-24.17Q669.64-25.42 665.54-25.98L665.54-25.98Q664.27-26.15 663.16-26.15 662.05-26.15 661.15-25.98 660.25-25.81 659.63-25.34L659.63-25.34Q658.46-24.39 658.41-21.8L658.41-21.8Q658.34-18.75 660.12-17.92L660.12-17.92Q661.83-17.11 664.18-16.81 666.52-16.5 668.01-16.27 669.5-16.04 670.72-15.65 671.94-15.26 672.82-14.4L672.82-14.4Q674.65-12.67 674.6-8.37L674.6-8.37Q674.48-0.88 668.35 0.17L668.35 0.17Q666.5 0.49 664.64 0.49 662.78 0.49 661.23 0.26 659.68 0.02 658.27-0.39L658.27-0.39Q655.58-1.15 653.41-2.39L653.41-2.39ZM695.88-14.45L695.88-14.45Q695.88-20 696.45-22.19 697.01-24.39 697.83-25.67 698.64-26.95 700.04-27.81L700.04-27.81Q702.82-29.54 708.26-29.54L708.26-29.54Q716.12-29.54 718.37-25.66L718.37-25.66Q719.71-23.32 719.91-19.04L719.91-19.04Q719.98-17.02 719.98-14.58 719.98-12.13 719.82-10.02 719.66-7.91 719.2-6.23 718.74-4.54 717.91-3.28 717.08-2.03 715.71-1.17L715.71-1.17Q713.02 0.49 707.87 0.49L707.87 0.49Q700.16 0.49 697.74-3.32L697.74-3.32Q696.25-5.69 696.01-9.96L696.01-9.96Q695.88-12.01 695.88-14.45ZM702.53-4.27Q703.4-3.61 704.73-3.28 706.07-2.95 708.37-2.95 710.68-2.95 712.25-3.61 713.83-4.27 714.62-5.73 715.42-7.18 715.62-9.5 715.83-11.82 715.83-14.89 715.83-17.97 715.65-20.02 715.46-22.07 714.73-23.41L714.73-23.41Q713.27-26.05 708.21-26.05L708.21-26.05Q702.87-26.05 701.26-23.41L701.26-23.41Q700.45-22.07 700.23-20 700.01-17.92 700.01-15.48 700.01-13.04 700.07-11.34 700.13-9.64 700.39-8.29 700.65-6.93 701.15-5.93 701.65-4.93 702.53-4.27ZM738.83-38.48Q736.95-38.48 735.97-37.66 734.99-36.84 734.99-34.44 734.99-32.03 735.9-29.05L735.9-29.05 742.81-29.05 742.81-25.66 735.85-25.66 735.85 0 731.92 0 731.92-25.66 727.06-25.66 727.06-28.66 731.87-29.05Q731.55-29.71 731.26-31.91 730.97-34.11 730.97-35.06L730.97-35.06Q730.97-41.99 739.07-41.99L739.07-41.99Q742-41.99 744.61-41.36L744.61-41.36 743.88-37.72Q740.71-38.48 738.83-38.48ZM772.15-38.48Q770.27-38.48 769.29-37.66 768.31-36.84 768.31-34.44 768.31-32.03 769.22-29.05L769.22-29.05 776.13-29.05 776.13-25.66 769.17-25.66 769.17 0 765.24 0 765.24-25.66 760.38-25.66 760.38-28.66 765.19-29.05Q764.87-29.71 764.58-31.91 764.29-34.11 764.29-35.06L764.29-35.06Q764.29-41.99 772.39-41.99L772.39-41.99Q775.32-41.99 777.93-41.36L777.93-41.36 777.2-37.72Q774.03-38.48 772.15-38.48ZM787.09-36.01L787.09-36.01Q785.45-36.01 784.99-36.47L784.99-36.47Q784.25-37.23 784.25-38.56 784.25-39.89 784.41-40.47 784.57-41.04 784.89-41.36L784.89-41.36Q785.47-41.94 786.68-41.94 787.89-41.94 788.42-41.82 788.94-41.7 789.28-41.36L789.28-41.36Q789.87-40.77 789.87-39.44 789.87-38.11 789.73-37.54 789.6-36.96 789.28-36.62L789.28-36.62Q788.67-36.01 787.09-36.01ZM785.16 0L785.11-29.05 789.11-29.05 789.11 0 785.16 0ZM814.6-25.73L814.6-25.73Q809.84-25.73 804.91-22.92L804.91-22.92 804.91 0 800.85 0 800.85-29.05 804.42-29.05 804.81-26.05Q807.47-28.22 811.42-29.15L811.42-29.15Q813.04-29.54 815.21-29.54 817.38-29.54 819.04-29.04 820.7-28.54 821.68-27.44L821.68-27.44Q823.46-25.46 823.46-20.24L823.46-20.24 823.46 0 819.36 0 819.36-19.48Q819.36-23 818.67-24.01 817.99-25.02 817.05-25.38 816.11-25.73 814.6-25.73ZM855.71-5.03L856.9-1.54Q851.85 0.49 845.75 0.49L845.75 0.49Q842.21 0.49 839.74-0.24L839.74-0.24Q835.81-1.37 834.52-4.88L834.52-4.88Q833.32-8.18 833.32-14.65L833.32-14.65 833.32-15.89Q833.32-23.63 836.54-26.76L836.54-26.76Q839.45-29.54 846.24-29.54L846.24-29.54Q852.85-29.54 855.27-26.27L855.27-26.27Q856.44-24.68 856.82-22.42 857.2-20.17 857.2-18.12L857.2-18.12Q857.2-14.92 857.05-13.16L857.05-13.16Q853.61-13.01 850.87-13.01L850.87-13.01Q850.87-13.01 846.94-13.01L846.94-13.01Q840.79-13.01 837.47-13.55L837.47-13.55Q837.47-7.93 838.89-5.71L838.89-5.71Q840.62-3 845.8-3 850.97-3 855.71-5.03L855.71-5.03ZM837.47-16.41L853.07-16.41 853.07-18.75Q853.07-22.58 851.58-24.22L851.58-24.22Q849.92-26.05 845.85-26.05L845.85-26.05Q840.96-26.05 839.18-23.93L839.18-23.93Q837.47-21.9 837.47-16.41L837.47-16.41ZM865.74-2.39L867.5-5.76Q872.53-2.95 877.61-2.95L877.61-2.95Q881.83-2.95 882.56-5.96L882.56-5.96Q882.81-6.98 882.81-8.46 882.81-9.94 882.46-10.75 882.12-11.57 881.32-11.98 880.51-12.38 879.18-12.57 877.85-12.77 875.8-13.12 873.75-13.48 872.04-13.92 870.33-14.36 869.13-15.19L869.13-15.19Q866.59-16.97 866.69-21.19L866.69-21.19 866.69-21.8Q866.69-26.25 869.62-28.13L869.62-28.13Q872.45-29.98 878.97-29.39L878.97-29.39Q883.42-28.98 886.05-27.86L886.05-27.86 884.91-24.17Q881.98-25.42 877.87-25.98L877.87-25.98Q876.6-26.15 875.49-26.15 874.38-26.15 873.48-25.98 872.58-25.81 871.97-25.34L871.97-25.34Q870.79-24.39 870.75-21.8L870.75-21.8Q870.67-18.75 872.45-17.92L872.45-17.92Q874.16-17.11 876.51-16.81 878.85-16.5 880.34-16.27 881.83-16.04 883.05-15.65 884.27-15.26 885.15-14.4L885.15-14.4Q886.98-12.67 886.93-8.37L886.93-8.37Q886.81-0.88 880.68 0.17L880.68 0.17Q878.83 0.49 876.97 0.49 875.12 0.49 873.57 0.26 872.01 0.02 870.6-0.39L870.6-0.39Q867.91-1.15 865.74-2.39L865.74-2.39ZM909.51-4.57L910.9-1.39Q906.92 0.49 903.56 0.49L903.56 0.49Q897.45 0.49 896.62-4.74L896.62-4.74Q896.43-5.98 896.43-8.35L896.43-8.35 896.43-25.66 892.91-25.66 892.91-28.66 896.43-29.05 897.06-35.69 900.45-35.69 900.45-29.05 908.93-29.05 908.93-25.66 900.45-25.66 900.45-8.42Q900.45-5.42 900.89-4.59L900.89-4.59Q901.7-3.08 904.12-3.08 906.53-3.08 909.51-4.57L909.51-4.57ZM944.54 0.46L944.54 0.46 944.03 0.49 942.52 0.49Q933.82 0.49 931.04-4.98L931.04-4.98Q929.4-8.15 929.11-13.45L929.11-13.45Q928.99-15.94 928.99-18.87 928.99-21.8 929.16-24.43 929.33-27.05 929.83-29.17 930.33-31.3 931.25-32.92 932.16-34.55 933.65-35.64L933.65-35.64Q936.73-37.84 942.52-37.84L942.52-37.84 944.03-37.84Q953.09-37.84 955.63-32.96L955.63-32.96Q957.21-29.91 957.41-24.46L957.41-24.46Q957.51-21.8 957.51-18.37 957.51-14.94 957.22-11.77 956.94-8.59 955.97-6.13L955.97-6.13Q953.87-0.9 947.86 0.17L947.86 0.17Q950.77 3.69 955.99 7.64L955.99 7.64 952.89 10.91Q946.91 5.86 944.54 0.46ZM942.52-3.03L943.98-3.03Q946.67-3.03 948.44-3.61 950.21-4.2 951.23-5.66L951.23-5.66Q953.14-8.37 953.14-16.06L953.14-16.06 953.14-18.7Q953.14-22.39 952.94-25.27 952.74-28.15 951.89-30.13L951.89-30.13Q950.13-34.23 944.27-34.23L944.27-34.23 942.22-34.23Q936.27-34.23 934.6-30.4L934.6-30.4Q933.56-27.95 933.46-24.63 933.36-21.31 933.36-18.7L933.36-18.7 933.36-16.06Q933.36-8.86 935.51-5.91L935.51-5.91Q937.58-3.03 942.52-3.03L942.52-3.03ZM989.34-29.05L989.34-12.79Q989.34-4.74 989.8-0.2L989.8-0.2 986.16 0.1 985.58-3.34Q982.72-0.98 978.91 0.07L978.91 0.07Q977.4 0.49 975.31 0.49 973.23 0.49 971.58-0.01 969.93-0.51 968.95-1.61L968.95-1.61Q967.17-3.59 967.17-8.81L967.17-8.81 967.17-29.05 971.27-29.05 971.27-9.47Q971.27-5.96 971.96-4.94 972.64-3.93 973.58-3.58 974.52-3.22 975.81-3.22 977.11-3.22 978.32-3.43 979.52-3.64 980.74-4.03L980.74-4.03Q983.31-4.86 985.38-6.3L985.38-6.3 985.38-6.32Q985.29-8.18 985.29-13.55L985.29-13.55 985.29-29.05 989.34-29.05ZM1022.91-19.41L1022.91-10.3Q1022.91-5.44 1023.37-0.2L1023.37-0.2 1019.76 0.1 1019.15-3.3Q1016.05-0.81 1010.94 0.17L1010.94 0.17Q1009.28 0.49 1007.99 0.49 1006.69 0.49 1005.71 0.37 1004.72 0.24 1003.8-0.11 1002.89-0.46 1002.1-1.1 1001.32-1.73 1000.74-2.78L1000.74-2.78Q999.49-5 999.49-8.12 999.49-11.23 999.94-12.95 1000.4-14.67 1001.45-15.82L1001.45-15.82Q1003.52-18.09 1008.43-18.09 1013.34-18.09 1018.9-16.24L1018.9-16.24 1018.9-19.41Q1018.9-24.71 1014.53-25.68L1014.53-25.68Q1013.12-26 1011.28-26L1011.28-26Q1007.11-26 1002.62-24.34L1002.62-24.34 1001.71-27.86Q1002.96-28.69 1008.06-29.35L1008.06-29.35Q1009.67-29.54 1011.93-29.54 1014.19-29.54 1016.36-29 1018.54-28.47 1019.98-27.25L1019.98-27.25Q1022.91-24.83 1022.91-19.41L1022.91-19.41ZM1018.8-13.18L1018.8-13.18Q1013.09-14.62 1008.26-14.62L1008.26-14.62Q1005.28-14.62 1004.3-12.92L1004.3-12.92Q1003.64-11.72 1003.64-9.38 1003.64-7.03 1003.9-5.98 1004.16-4.93 1004.74-4.25L1004.74-4.25Q1005.89-2.95 1008.53-2.95L1008.53-2.95Q1012.65-2.95 1016.7-5.08L1016.7-5.08Q1017.95-5.71 1018.95-6.49L1018.95-6.49Q1018.8-9.13 1018.8-13.18ZM1034.89 0L1034.84-41.5 1038.87-41.85 1038.87 0 1034.89 0ZM1053.54-36.01L1053.54-36.01Q1051.9-36.01 1051.44-36.47L1051.44-36.47Q1050.71-37.23 1050.71-38.56 1050.71-39.89 1050.87-40.47 1051.03-41.04 1051.34-41.36L1051.34-41.36Q1051.93-41.94 1053.14-41.94 1054.35-41.94 1054.87-41.82 1055.4-41.7 1055.74-41.36L1055.74-41.36Q1056.32-40.77 1056.32-39.44 1056.32-38.11 1056.19-37.54 1056.05-36.96 1055.74-36.62L1055.74-36.62Q1055.13-36.01 1053.54-36.01ZM1051.61 0L1051.56-29.05 1055.57-29.05 1055.57 0 1051.61 0Z" opacity="1" transform="matrix(1,0,0,1,0,0)" fill="#c8c8c8" class="undefined-text-1" data-fill-palette-color="secondary" id="text-1"></path></svg></g></svg></g></svg></g></svg></g><g transform="matrix(1,0,0,1,177.78425760634497,0)"><svg viewBox="0 0 41.929084787309975 63.33417803280038" height="63.33417803280038" width="41.929084787309975"><g><svg xmlns="http://www.w3.org/2000/svg" xmlns:xlink="http://www.w3.org/1999/xlink" version="1.1" x="0" y="0" viewBox="24.761856079101562 5 59.5826416015625 90" enable-background="new 0 0 100 100" xml:space="preserve" height="63.33417803280038" width="41.929084787309975" class="icon-icon-0" data-fill-palette-color="accent" id="icon-0"><g fill="#000000" data-fill-palette-color="accent"><path d="M73.76 35.603C86.875 48 91.5 66.25 65.633 82.379c3.64-4.928 5.654-9.794 6.096-14.669 0.951-10.516-5.606-19.072-12.835-26.752C48.298 29.7 47.51 18.84 56.413 6.782 54.578 22.641 64.6 26.944 73.76 35.603zM45.288 93.716c6.184-13.053 7.276-20.302-8.197-34.939-4.204-3.977-7.451-8.029-9.71-12.086-2.881 6.435-5.164 20.081 3.244 27.935C36.312 79.938 44.125 83.125 45.288 93.716zM56.709 43.014C48.183 33.954 41.999 21.253 54 5 21.497 17.692 19.625 38.125 39.151 56.597 55.603 72.158 54.75 80.75 48 95 79.875 71.5 68.709 55.764 56.709 43.014z" fill="#000000" data-fill-palette-color="accent"></path></g><g display="none" fill="#000000" data-fill-palette-color="accent"><path display="inline" d="M54 5C16.75 17.5 14.875 56.5 26.75 70.762c10.558 12.68 15.407 7.949 19.675 20.824" fill="#000000" data-fill-palette-color="accent"></path><line display="inline" x1="56.988" y1="5.261" x2="45.528" y2="136.262" fill="#000000" data-fill-palette-color="accent"></line><line display="inline" x1="54.131" y1="3.502" x2="42.67" y2="134.502" fill="#000000" data-fill-palette-color="accent"></line><path display="inline" d="M42.875 76" fill="#000000" data-fill-palette-color="accent"></path></g></svg></g></svg></g><g></g></svg></g><defs></defs></svg><rect width="395.52" height="123.78608473179318" fill="none" stroke="none" visibility="hidden"></rect></g></svg></g></svg>